<?xml version="1.0" standalone="no"?>
<!DOCTYPE svg PUBLIC "-//W3C//DTD SVG 20010904//EN"
 "http://www.w3.org/TR/2001/REC-SVG-20010904/DTD/svg10.dtd">
<svg version="1.0" xmlns="http://www.w3.org/2000/svg"
 width="600.000000pt" height="600.000000pt" viewBox="0 0 600.000000 600.000000"
 preserveAspectRatio="xMidYMid meet">
<metadata>
Created by potrace 1.11, written by Peter Selinger 2001-2013
</metadata>
<g transform="translate(0.000000,600.000000) scale(0.100000,-0.100000)"
fill="#000000" stroke="none">
<path d="M2750 5989 c-108 -10 -193 -20 -210 -24 -8 -3 -33 -7 -55 -10 -145
-22 -472 -114 -598 -168 -169 -74 -237 -107 -332 -159 -319 -177 -581 -390
-829 -673 -79 -91 -219 -280 -272 -368 -16 -27 -38 -63 -48 -80 -39 -65 -143
-274 -166 -332 -13 -33 -27 -64 -31 -70 -13 -18 -100 -298 -124 -400 -21 -87
-41 -196 -59 -315 -27 -174 -27 -618 -1 -780 42 -253 59 -330 111 -500 121
-390 334 -774 596 -1072 325 -370 696 -635 1148 -821 78 -32 248 -91 295 -102
11 -3 56 -14 100 -25 44 -11 94 -23 110 -25 17 -3 37 -8 45 -10 8 -2 33 -6 55
-10 22 -3 47 -7 55 -10 19 -5 110 -15 220 -24 141 -12 474 -5 615 13 732 96
1400 450 1870 992 100 114 109 126 169 207 212 287 375 622 471 966 35 125 40
146 50 206 3 17 8 37 10 45 4 15 11 60 21 135 2 22 7 46 9 53 25 70 24 627 0
747 -3 11 -7 38 -10 60 -29 211 -97 465 -182 678 -43 108 -162 348 -211 427
-147 235 -255 373 -444 570 -140 146 -356 318 -563 447 -301 188 -720 346
-1059 399 -21 3 -47 7 -58 9 -11 3 -46 7 -77 10 -31 4 -74 9 -96 12 -63 8
-442 10 -525 2z m505 -342 c17 -3 55 -8 86 -12 31 -3 65 -7 75 -9 11 -2 39 -7
64 -11 65 -10 293 -70 375 -98 188 -65 396 -165 564 -272 86 -54 214 -145 231
-165 3 -3 23 -19 45 -35 42 -31 256 -241 316 -310 82 -94 203 -265 296 -420
33 -55 144 -288 164 -345 12 -36 27 -71 32 -77 5 -7 7 -13 4 -13 -3 0 1 -16 9
-35 27 -65 76 -261 98 -390 23 -139 25 -161 32 -295 l7 -126 -39 -33 c-22 -19
-59 -52 -84 -75 -89 -83 -250 -215 -384 -316 l-137 -102 -46 13 c-175 49 -351
-63 -381 -242 l-8 -44 -149 -75 c-83 -42 -172 -85 -200 -97 -103 -45 -100 -45
-152 -15 -42 23 -59 27 -133 27 -68 0 -94 -5 -131 -23 -60 -29 -115 -85 -142
-144 -24 -54 -24 -53 -172 -82 -85 -17 -110 -21 -193 -31 -52 -7 -54 -6 -98
35 -25 23 -66 51 -90 61 -117 52 -271 17 -348 -79 -17 -22 -24 -23 -75 -18
-31 3 -67 8 -81 10 -14 3 -43 7 -65 10 -22 4 -75 13 -117 22 l-77 17 -26 52
c-47 97 -144 163 -247 169 -60 3 -140 -17 -180 -46 l-28 -19 -97 42 c-116 51
-323 155 -341 173 -7 7 -16 28 -18 47 -17 110 -120 224 -221 246 -56 12 -151
5 -196 -15 -154 -68 -225 -252 -155 -402 51 -111 151 -175 273 -174 48 1 85 8
117 22 39 17 49 18 65 7 30 -21 220 -115 342 -170 l114 -51 14 -48 c60 -204
316 -280 480 -142 18 15 36 25 41 22 5 -3 19 -7 33 -10 13 -2 58 -12 99 -21
41 -9 89 -18 105 -20 52 -6 170 -20 180 -20 5 0 23 -20 40 -45 121 -180 381
-179 500 1 22 33 37 46 55 47 14 0 54 5 90 11 36 5 85 13 110 16 25 4 83 15
129 25 l84 19 38 -31 c115 -93 290 -82 398 24 37 36 81 120 81 154 0 17 19 29
98 64 53 23 163 76 244 117 l146 74 34 -17 c19 -10 65 -19 111 -22 71 -4 82
-2 142 27 41 21 77 48 101 76 39 49 73 141 69 193 -2 30 4 37 64 80 55 39 209
161 344 271 l29 24 -7 -49 c-29 -221 -116 -488 -240 -739 -259 -524 -666 -932
-1195 -1196 -233 -116 -545 -213 -780 -244 -58 -7 -104 -13 -159 -21 -62 -8
-374 -8 -451 0 -126 14 -145 16 -200 26 -30 5 -71 12 -90 15 -19 3 -62 13 -95
21 -33 9 -71 18 -84 20 -43 9 -209 64 -295 99 -331 133 -630 331 -886 585
-330 328 -555 709 -684 1158 -19 64 -37 135 -40 157 -4 22 -8 47 -11 55 -6 20
-14 66 -20 115 -3 22 -7 58 -10 80 -6 44 -14 132 -19 210 -4 62 2 73 66 132
28 27 56 53 62 58 107 100 364 308 473 384 32 21 33 21 89 5 178 -51 347 63
379 256 3 19 11 40 18 47 20 19 348 179 405 197 15 5 41 -2 86 -24 107 -53
233 -41 324 30 36 29 89 106 97 141 4 16 8 29 9 29 1 0 42 9 91 19 50 11 110
22 135 26 25 3 58 8 74 11 75 12 93 8 126 -29 72 -83 177 -116 292 -94 49 10
100 40 148 87 l48 47 93 -14 c253 -36 293 -48 303 -88 37 -147 235 -239 382
-179 31 12 64 30 74 39 17 15 23 14 92 -15 84 -37 349 -168 360 -179 4 -4 12
-31 18 -60 25 -132 115 -226 240 -249 189 -35 366 116 355 303 -6 102 -22 141
-85 203 -84 84 -195 111 -305 74 l-59 -20 -196 97 c-107 53 -218 107 -246 119
-43 19 -53 28 -62 60 -28 92 -115 179 -206 203 -90 24 -177 8 -257 -47 l-37
-25 -132 26 c-73 14 -177 31 -230 37 -96 11 -98 12 -120 47 -30 48 -96 98
-156 116 -133 40 -255 -5 -349 -127 -16 -22 -31 -28 -80 -32 -33 -4 -69 -8
-80 -10 -11 -2 -36 -6 -55 -9 -84 -15 -96 -17 -120 -23 -14 -3 -32 -7 -40 -8
-8 -1 -31 -6 -51 -10 -30 -6 -42 -3 -80 22 -169 114 -402 35 -459 -154 -12
-39 -16 -42 -113 -83 -56 -24 -169 -77 -250 -118 l-148 -73 -47 16 c-184 63
-372 -56 -398 -253 -6 -49 -10 -54 -63 -92 -31 -22 -65 -47 -76 -55 -11 -9
-38 -30 -60 -47 -45 -34 -101 -81 -184 -151 -31 -26 -57 -45 -59 -44 -1 2 8
59 22 127 205 1024 1014 1840 2041 2058 111 24 157 31 295 46 36 4 66 8 68 10
5 4 417 -3 447 -8z"/>
<path d="M2944 3908 c-41 -11 -92 -63 -104 -107 -6 -23 -10 -328 -10 -811 l0
-775 25 -42 c28 -47 91 -83 145 -83 49 0 111 34 140 77 l25 38 1 790 c2 751 1
792 -17 826 -18 37 -71 88 -92 90 -50 5 -87 5 -113 -3z"/>
<path d="M1973 3744 c-20 -12 -46 -39 -59 -60 l-24 -39 0 -635 c0 -611 1 -637
20 -674 58 -115 216 -123 288 -14 l27 42 0 641 0 642 -28 42 c-51 77 -149 101
-224 55z"/>
<path d="M3885 3758 c-46 -16 -92 -65 -103 -112 -7 -25 -11 -269 -11 -650 0
-515 3 -615 15 -645 29 -69 77 -102 153 -104 57 -2 95 17 135 66 l31 39 3 626
c2 449 0 638 -8 667 -27 93 -123 143 -215 113z"/>
<path d="M1088 3310 c-50 -9 -103 -47 -123 -89 -22 -46 -23 -387 -1 -430 36
-68 100 -104 172 -94 53 7 89 30 121 77 25 39 26 42 26 225 0 168 -2 190 -21
226 -31 62 -104 97 -174 85z"/>
<path d="M4868 3315 c-2 -2 -16 -6 -32 -9 -46 -8 -97 -58 -113 -109 -5 -18 -9
-111 -8 -207 1 -164 2 -178 23 -212 70 -113 233 -109 292 8 18 34 20 59 20
225 l0 186 -30 41 c-16 23 -42 48 -57 55 -30 15 -88 29 -95 22z"/>
</g>
</svg>
