<?xml version="1.0" encoding="utf-8"?>
<!-- Generator: Adobe Illustrator 21.0.0, SVG Export Plug-In . SVG Version: 6.00 Build 0)  -->
<svg version="1.1" id="Layer_1" xmlns="http://www.w3.org/2000/svg" xmlns:xlink="http://www.w3.org/1999/xlink" x="0px" y="0px"
	 viewBox="0 0 419.3 143.7" style="enable-background:new 0 0 419.3 143.7;" xml:space="preserve">
<style type="text/css">
	.st0{fill:#23395B;}
	.st1{fill:#8CA6C1;}
</style>
<g>
	<g>
		<path class="st0" d="M71.9,0C32.2,0,0,32.2,0,71.9s32.2,71.9,71.9,71.9s71.9-32.2,71.9-71.9S111.5,0,71.9,0z M71.9,135.6
			c-34.9,0-63.3-28.1-63.7-62.9c2.5-2.4,7.8-7.4,15.3-12.7c1,0.5,2.1,0.8,3.2,0.8c4,0,7.2-3.2,7.2-7.2c0-0.1,0-0.1,0-0.2
			c3.4-1.9,7-3.7,10.8-5.2c1.3,1.1,2.9,1.7,4.7,1.7c3.4,0,6.3-2.4,7-5.6c3.1-0.8,6.3-1.3,9.5-1.6c1.3,2,3.5,3.4,6.1,3.4
			c2.6,0,4.8-1.4,6.1-3.4c3.1,0.3,6.3,0.8,9.5,1.6c0.7,3.2,3.6,5.6,7,5.6c1.8,0,3.4-0.7,4.7-1.8c3.6,1.5,7.1,3.2,10.7,5.2
			c0,0.1,0,0.1,0,0.2c0,4,3.2,7.2,7.2,7.2c4,0,7.2-3.2,7.2-7.2s-3.2-7.2-7.2-7.2c-1.3,0-2.5,0.4-3.6,1c-4-2.2-8-4.2-11.9-5.8
			c-0.6-3.4-3.5-6.1-7.1-6.1c-2,0-3.7,0.8-5.1,2.1c-3.7-0.9-7.4-1.5-11.1-1.9c-1.2-2.4-3.6-4-6.4-4c-2.8,0-5.3,1.7-6.4,4
			c-3.1,0.3-6.9,0.9-11,1.9c-1.3-1.3-3.1-2.1-5.1-2.1c-3.6,0-6.5,2.6-7.1,6c-3.8,1.5-7.9,3.4-12.1,5.7c-1-0.6-2.2-0.9-3.4-0.9
			c-4,0-7.2,3.2-7.2,7.2c0,0.1,0,0.3,0,0.4c-3.5,2.5-7.1,5.3-10.7,8.5C13.3,31.8,39.9,8.1,71.9,8.1c34.9,0,63.3,28.1,63.7,62.9
			c-2.5,2.4-8,7.5-15.6,12.8c-0.9-0.4-1.9-0.7-3-0.7c-3.9,0-7.1,3.2-7.2,7.1c-3.4,1.9-7.1,3.7-11,5.3c-1.2-1-2.7-1.5-4.4-1.5
			c-3.3,0-6.1,2.2-6.9,5.3c-3.2,0.8-6.4,1.4-9.8,1.7c-1.3-1.9-3.5-3.1-5.9-3.1c-2.5,0-4.6,1.2-5.9,3.1c-3.2-0.3-6.5-0.8-9.7-1.6
			c-0.8-3-3.6-5.3-6.9-5.3c-1.7,0-3.2,0.6-4.5,1.6c-3.6-1.5-7.3-3.2-10.9-5.3c0-3.9-3.3-7.1-7.2-7.1c-4,0-7.2,3.2-7.2,7.2
			s3.2,7.2,7.2,7.2c1.4,0,2.7-0.4,3.8-1.1c3.9,2.2,7.8,4.1,11.6,5.6c0.4,3.6,3.4,6.3,7.1,6.3c2.1,0,3.9-0.9,5.2-2.3
			c3.6,0.9,7.2,1.5,10.8,1.8c1.1,2.5,3.6,4.3,6.6,4.3c2.9,0,5.5-1.8,6.6-4.3c3.7-0.4,7.3-1,10.7-1.8c1.3,1.4,3.2,2.3,5.3,2.3
			c3.7,0,6.7-2.8,7.1-6.4c4.1-1.7,8-3.6,11.6-5.6c1.1,0.7,2.4,1.1,3.8,1.1c4,0,7.2-3.2,7.2-7.2c0-0.3-0.1-0.5-0.1-0.8
			c4.3-3,7.9-5.9,10.7-8.4C130.4,112,103.9,135.6,71.9,135.6z"/>
		<path class="st1" d="M71.9,49.9c-2.2,0-4,1.8-4,4v35.8c0,2.2,1.8,4,4,4s4-1.8,4-4V54C75.9,51.7,74.1,49.9,71.9,49.9z M26.7,64.4
			c-2.2,0-4,1.8-4,4v6.8c0,2.2,1.8,4,4,4s4-1.8,4-4v-6.8C30.7,66.2,28.9,64.4,26.7,64.4z M49.3,53.5c-2.2,0-4,1.8-4,4v28.5
			c0,2.2,1.8,4,4,4s4-1.8,4-4V57.6C53.3,55.4,51.5,53.5,49.3,53.5z M117.1,64.4c-2.2,0-4,1.8-4,4v6.8c0,2.2,1.8,4,4,4
			c2.2,0,4-1.8,4-4v-6.8C121.1,66.2,119.3,64.4,117.1,64.4z M94.5,53.5c-2.2,0-4,1.8-4,4v28.5c0,2.2,1.8,4,4,4c2.2,0,4-1.8,4-4V57.6
			C98.5,55.4,96.7,53.5,94.5,53.5z"/>
	</g>
	<g>
		<path class="st0" d="M197.6,86.9h33.3v10.2h-44V22h10.7V86.9z"/>
		<path class="st0" d="M274.7,92.4c-4.1,3.6-9.5,5.7-15.6,5.7c-4.5,0-9.2-1.3-12.7-3.3c-7.6-4.5-12.9-12.9-12.9-23
			c0-10.1,5.4-18.6,13-23.1c3.4-2,7.6-3.2,12.3-3.2c5.7,0,11.2,1.7,15.8,5.7v-4.6h9.9v50.4h-9.9V92.4z M274.4,62.4
			c-3.1-4.1-8.3-7.2-14.4-7.2c-9.8,0-16.2,7.8-16.2,16.6c0,9,7,16.6,16.7,16.6c5.1,0,10.4-2.6,13.8-7.2V62.4z"/>
		<path class="st0" d="M307.9,97.1H298V20.9h10.2V51c4.5-3.8,10-5.5,15.4-5.5c4.7,0,8.9,1.2,12.3,3.2c7.6,4.5,13,13,13,23.1
			c0,10.1-5.3,18.4-12.9,23c-3.4,2-8.2,3.3-12.7,3.3c-6,0-11.5-2-15.6-5.7V97.1z M308.2,81.3c3.4,4.6,8.7,7.2,13.8,7.2
			c9.8,0,16.7-7.6,16.7-16.6c0-8.8-6.4-16.6-16.2-16.6c-6.1,0-11.3,3.1-14.4,7.2V81.3z"/>
		<path class="st0" d="M372.9,47.7l-8.7,49.3h-10.3l8.7-49.3H372.9z M370.6,23c3.8,0,6.8,3,6.8,6.8s-3,6.6-6.8,6.6
			c-3.8,0-6.7-2.9-6.7-6.6S366.9,23,370.6,23z"/>
		<path class="st0" d="M412.2,97.1c-2,0.8-4.9,1.1-7.3,1.1c-8.7,0-17.6-5.4-17.6-15.9c0-1.1,0.5-5.5,0.9-7.1l3.2-18.3h-12.9l1.6-9.1
			H393l2.5-13.9h10.3l-2.5,13.9h16l-1.6,9.1h-16l-3.4,19.8c-0.4,2.6-0.8,4.9-0.8,5.9c0,4.3,3.3,6.4,7.6,6.4c1.7,0,3.8-0.3,5.1-0.8
			L412.2,97.1z"/>
	</g>
</g>
</svg>
